<?xml version="1.0" encoding="UTF-8"?>
<svg width="240px" height="56px" viewBox="0 0 240 56" version="1.1" xmlns="http://www.w3.org/2000/svg" xmlns:xlink="http://www.w3.org/1999/xlink">
    <!-- Generator: Sketch 62 (91390) - https://sketch.com -->
    <title>img_menu_consultants_logo</title>
    <desc>Created with Sketch.</desc>
    <defs>
        <polygon id="path-1" points="0.0002 0.6802 19.1402 0.6802 19.1402 23 0.0002 23"></polygon>
        <polygon id="path-3" points="0.2998 0.679 22.8298 0.679 22.8298 22.9999 0.2998 22.9999"></polygon>
        <polygon id="path-5" points="0.6891 0.2202 17.7891 0.2202 17.7891 22 0.6891 22"></polygon>
    </defs>
    <g id="img_menu_consultants_logo" stroke="none" stroke-width="1" fill="none" fill-rule="evenodd">
        <g id="Group-26" transform="translate(0.000000, 16.000000)">
            <g id="Group-3" transform="translate(0.000000, 0.321000)">
                <mask id="mask-2" fill="white">
                    <use xlink:href="#path-1"></use>
                </mask>
                <g id="Clip-2"></g>
                <path d="M15.7202,6.2002 C14.9402,5.3602 14.1852,4.8002 13.4552,4.5202 C12.7242,4.2402 11.9902,4.1002 11.2502,4.1002 C10.1502,4.1002 9.1552,4.2952 8.2652,4.6852 C7.3752,5.0752 6.6102,5.6152 5.9702,6.3052 C5.3292,6.9952 4.8342,7.8002 4.4852,8.7202 C4.1352,9.6402 3.9602,10.6302 3.9602,11.6902 C3.9602,12.8302 4.1352,13.8802 4.4852,14.8402 C4.8342,15.8002 5.3292,16.6302 5.9702,17.3302 C6.6102,18.0302 7.3752,18.5802 8.2652,18.9802 C9.1552,19.3802 10.1502,19.5802 11.2502,19.5802 C12.1102,19.5802 12.9452,19.3752 13.7552,18.9652 C14.5652,18.5552 15.3202,17.9002 16.0202,17.0002 L19.1402,19.2202 C18.1802,20.5402 17.0102,21.5002 15.6302,22.1002 C14.2502,22.7002 12.7802,23.0002 11.2202,23.0002 C9.5802,23.0002 8.0742,22.7352 6.7052,22.2052 C5.3352,21.6752 4.1552,20.9252 3.1652,19.9552 C2.1752,18.9852 1.4002,17.8202 0.8402,16.4602 C0.2802,15.1002 0.0002,13.5902 0.0002,11.9302 C0.0002,10.2302 0.2802,8.6852 0.8402,7.2952 C1.4002,5.9052 2.1752,4.7202 3.1652,3.7402 C4.1552,2.7602 5.3352,2.0052 6.7052,1.4752 C8.0742,0.9452 9.5802,0.6802 11.2202,0.6802 C12.6602,0.6802 13.9952,0.9352 15.2252,1.4452 C16.4552,1.9552 17.5992,2.8202 18.6602,4.0402 L15.7202,6.2002 Z" id="Fill-1" fill="#F6C142" mask="url(#mask-2)"></path>
            </g>
            <g id="Group-6" transform="translate(21.000000, 0.321000)">
                <mask id="mask-4" fill="white">
                    <use xlink:href="#path-3"></use>
                </mask>
                <g id="Clip-5"></g>
                <path d="M4.2598,11.6899 C4.2598,12.8299 4.4348,13.8799 4.7848,14.8399 C5.1348,15.7999 5.6298,16.6299 6.2698,17.3299 C6.9098,18.0299 7.6748,18.5799 8.5648,18.9799 C9.4548,19.3799 10.4498,19.5799 11.5498,19.5799 C12.6498,19.5799 13.6498,19.3799 14.5498,18.9799 C15.4498,18.5799 16.2198,18.0299 16.8598,17.3299 C17.4998,16.6299 17.9948,15.7999 18.3448,14.8399 C18.6948,13.8799 18.8698,12.8299 18.8698,11.6899 C18.8698,10.6299 18.6948,9.6399 18.3448,8.7199 C17.9948,7.7999 17.4998,6.9949 16.8598,6.3049 C16.2198,5.6149 15.4498,5.0749 14.5498,4.6849 C13.6498,4.2949 12.6498,4.0999 11.5498,4.0999 C10.4498,4.0999 9.4548,4.2949 8.5648,4.6849 C7.6748,5.0749 6.9098,5.6149 6.2698,6.3049 C5.6298,6.9949 5.1348,7.7999 4.7848,8.7199 C4.4348,9.6399 4.2598,10.6299 4.2598,11.6899 M0.2998,11.9299 C0.2998,10.2309 0.5798,8.6849 1.1398,7.2949 C1.6998,5.9049 2.4748,4.7199 3.4648,3.7399 C4.4548,2.7599 5.6348,2.0049 7.0048,1.4749 C8.3748,0.9449 9.8798,0.6799 11.5198,0.6799 C13.1798,0.6599 14.6998,0.9049 16.0798,1.4149 C17.4598,1.9249 18.6498,2.6699 19.6498,3.6499 C20.6498,4.6299 21.4298,5.8099 21.9898,7.1899 C22.5498,8.5699 22.8298,10.1099 22.8298,11.8099 C22.8298,13.4699 22.5498,14.9799 21.9898,16.3399 C21.4298,17.6999 20.6498,18.8699 19.6498,19.8499 C18.6498,20.8299 17.4598,21.5949 16.0798,22.1449 C14.6998,22.6949 13.1798,22.9799 11.5198,22.9999 C9.8798,22.9999 8.3748,22.7349 7.0048,22.2049 C5.6348,21.6749 4.4548,20.9249 3.4648,19.9549 C2.4748,18.9849 1.6998,17.8199 1.1398,16.4599 C0.5798,15.0999 0.2998,13.5899 0.2998,11.9299" id="Fill-4" fill="#F6C142" mask="url(#mask-4)"></path>
            </g>
            <polygon id="Fill-7" fill="#F6C142" points="48.1797 1.5407 53.1897 1.5407 63.4797 17.3207 63.5397 17.3207 63.5397 1.5407 67.3197 1.5407 67.3197 22.7807 62.5197 22.7807 52.0197 6.4907 51.9597 6.4907 51.9597 22.7807 48.1797 22.7807"></polygon>
            <path d="M83.2192,6.1008 C82.8192,5.5208 82.2842,5.0958 81.6142,4.8258 C80.9442,4.5558 80.2392,4.4208 79.4992,4.4208 C79.0592,4.4208 78.6342,4.4708 78.2242,4.5708 C77.8142,4.6708 77.4442,4.8308 77.1142,5.0508 C76.7842,5.2708 76.5192,5.5568 76.3192,5.9058 C76.1192,6.2558 76.0192,6.6708 76.0192,7.1508 C76.0192,7.8708 76.2692,8.4208 76.7692,8.8008 C77.2692,9.1818 77.8892,9.5108 78.6292,9.7908 C79.3692,10.0718 80.1792,10.3418 81.0592,10.6008 C81.9392,10.8608 82.7492,11.2208 83.4892,11.6808 C84.2292,12.1418 84.8492,12.7508 85.3492,13.5108 C85.8492,14.2708 86.0992,15.2808 86.0992,16.5408 C86.0992,17.6808 85.8892,18.6758 85.4692,19.5258 C85.0492,20.3758 84.4842,21.0808 83.7742,21.6408 C83.0642,22.2008 82.2392,22.6218 81.2992,22.9008 C80.3592,23.1808 79.3692,23.3208 78.3292,23.3208 C77.0092,23.3208 75.7392,23.1008 74.5192,22.6608 C73.2992,22.2218 72.2492,21.4808 71.3692,20.4408 L74.2192,17.6808 C74.6792,18.3808 75.2842,18.9258 76.0342,19.3158 C76.7842,19.7058 77.5792,19.9008 78.4192,19.9008 C78.8592,19.9008 79.2992,19.8408 79.7392,19.7208 C80.1792,19.6008 80.5792,19.4208 80.9392,19.1808 C81.2992,18.9408 81.5892,18.6368 81.8092,18.2658 C82.0292,17.8958 82.1392,17.4708 82.1392,16.9908 C82.1392,16.2108 81.8892,15.6108 81.3892,15.1908 C80.8892,14.7708 80.2692,14.4158 79.5292,14.1258 C78.7892,13.8358 77.9792,13.5608 77.0992,13.3008 C76.2192,13.0408 75.4092,12.6858 74.6692,12.2358 C73.9292,11.7858 73.3092,11.1858 72.8092,10.4358 C72.3092,9.6858 72.0592,8.6808 72.0592,7.4208 C72.0592,6.3218 72.2842,5.3718 72.7342,4.5708 C73.1842,3.7708 73.7742,3.1058 74.5042,2.5758 C75.2342,2.0458 76.0692,1.6508 77.0092,1.3908 C77.9492,1.1308 78.9092,1.0008 79.8892,1.0008 C81.0092,1.0008 82.0942,1.1708 83.1442,1.5108 C84.1942,1.8508 85.1392,2.4108 85.9792,3.1908 L83.2192,6.1008 Z" id="Fill-9" fill="#F6C142"></path>
            <g id="Group-13" transform="translate(90.000000, 1.321000)">
                <mask id="mask-6" fill="white">
                    <use xlink:href="#path-5"></use>
                </mask>
                <g id="Clip-12"></g>
                <path d="M17.7891,13.6602 C17.7891,14.9402 17.5691,16.0952 17.1291,17.1252 C16.6891,18.1552 16.0891,19.0302 15.3291,19.7502 C14.5691,20.4702 13.6691,21.0252 12.6291,21.4152 C11.5891,21.8052 10.4591,22.0002 9.2391,22.0002 C8.0191,22.0002 6.8891,21.8052 5.8491,21.4152 C4.8091,21.0252 3.9041,20.4702 3.1341,19.7502 C2.3641,19.0302 1.7641,18.1552 1.3341,17.1252 C0.9041,16.0952 0.6891,14.9402 0.6891,13.6602 L0.6891,0.2202 L4.4691,0.2202 L4.4691,13.5402 C4.4691,14.0602 4.5491,14.6052 4.7091,15.1752 C4.8691,15.7452 5.1341,16.2702 5.5041,16.7502 C5.8741,17.2302 6.3641,17.6252 6.9741,17.9352 C7.5841,18.2452 8.3391,18.4002 9.2391,18.4002 C10.1391,18.4002 10.8941,18.2452 11.5041,17.9352 C12.1141,17.6252 12.6041,17.2302 12.9741,16.7502 C13.3441,16.2702 13.6091,15.7452 13.7691,15.1752 C13.9291,14.6052 14.0091,14.0602 14.0091,13.5402 L14.0091,0.2202 L17.7891,0.2202 L17.7891,13.6602 Z" id="Fill-11" fill="#F6C142" mask="url(#mask-6)"></path>
            </g>
            <polygon id="Fill-14" fill="#F6C142" points="113.189 1.5407 116.969 1.5407 116.969 19.3607 125.999 19.3607 125.999 22.7807 113.189 22.7807"></polygon>
            <polygon id="Fill-16" fill="#F6C142" points="131.0991 4.9611 124.5891 4.9611 124.5891 1.5411 141.3891 1.5411 141.3891 4.9611 134.8791 4.9611 134.8791 22.7811 131.0991 22.7811"></polygon>
            <path d="M153.6289,14.6809 L150.3589,6.0409 L147.0289,14.6809 L153.6289,14.6809 Z M148.8289,1.5409 L152.0989,1.5409 L161.2489,22.7809 L156.9289,22.7809 L154.9489,17.9209 L145.7389,17.9209 L143.8189,22.7809 L139.5889,22.7809 L148.8289,1.5409 Z" id="Fill-18" fill="#F6C142"></path>
            <polygon id="Fill-20" fill="#F6C142" points="164.3687 1.5407 169.3787 1.5407 179.6687 17.3207 179.7287 17.3207 179.7287 1.5407 183.5087 1.5407 183.5087 22.7807 178.7087 22.7807 168.2087 6.4907 168.1487 6.4907 168.1487 22.7807 164.3687 22.7807"></polygon>
            <polygon id="Fill-22" fill="#F6C142" points="193.3486 4.9611 186.8386 4.9611 186.8386 1.5411 203.6386 1.5411 203.6386 4.9611 197.1286 4.9611 197.1286 22.7811 193.3486 22.7811"></polygon>
            <path d="M217.3779,6.1008 C216.9779,5.5208 216.4429,5.0958 215.7729,4.8258 C215.1029,4.5558 214.3979,4.4208 213.6579,4.4208 C213.2179,4.4208 212.7929,4.4708 212.3829,4.5708 C211.9729,4.6708 211.6029,4.8308 211.2729,5.0508 C210.9429,5.2708 210.6779,5.5568 210.4779,5.9058 C210.2779,6.2558 210.1779,6.6708 210.1779,7.1508 C210.1779,7.8708 210.4279,8.4208 210.9279,8.8008 C211.4279,9.1818 212.0479,9.5108 212.7879,9.7908 C213.5279,10.0718 214.3379,10.3418 215.2179,10.6008 C216.0979,10.8608 216.9079,11.2208 217.6479,11.6808 C218.3879,12.1418 219.0079,12.7508 219.5079,13.5108 C220.0079,14.2708 220.2579,15.2808 220.2579,16.5408 C220.2579,17.6808 220.0479,18.6758 219.6279,19.5258 C219.2079,20.3758 218.6429,21.0808 217.9329,21.6408 C217.2229,22.2008 216.3979,22.6218 215.4579,22.9008 C214.5179,23.1808 213.5279,23.3208 212.4879,23.3208 C211.1679,23.3208 209.8979,23.1008 208.6779,22.6608 C207.4579,22.2218 206.4079,21.4808 205.5279,20.4408 L208.3779,17.6808 C208.8379,18.3808 209.4429,18.9258 210.1929,19.3158 C210.9429,19.7058 211.7379,19.9008 212.5779,19.9008 C213.0179,19.9008 213.4579,19.8408 213.8979,19.7208 C214.3379,19.6008 214.7379,19.4208 215.0979,19.1808 C215.4579,18.9408 215.7479,18.6368 215.9679,18.2658 C216.1879,17.8958 216.2979,17.4708 216.2979,16.9908 C216.2979,16.2108 216.0479,15.6108 215.5479,15.1908 C215.0479,14.7708 214.4279,14.4158 213.6879,14.1258 C212.9479,13.8358 212.1379,13.5608 211.2579,13.3008 C210.3779,13.0408 209.5679,12.6858 208.8279,12.2358 C208.0879,11.7858 207.4679,11.1858 206.9679,10.4358 C206.4679,9.6858 206.2179,8.6808 206.2179,7.4208 C206.2179,6.3218 206.4429,5.3718 206.8929,4.5708 C207.3429,3.7708 207.9329,3.1058 208.6629,2.5758 C209.3929,2.0458 210.2279,1.6508 211.1679,1.3908 C212.1079,1.1308 213.0679,1.0008 214.0479,1.0008 C215.1679,1.0008 216.2529,1.1708 217.3029,1.5108 C218.3529,1.8508 219.2979,2.4108 220.1379,3.1908 L217.3779,6.1008 Z" id="Fill-24" fill="#F6C142"></path>
        </g>
    </g>
</svg>